<?xml version="1.0" encoding="UTF-8"?>
<svg data-name="Layer 1" viewBox="0 0 490.07 432.05" xmlns="http://www.w3.org/2000/svg">
<g>
<title>Layer 1</title>
<path class="cls-1" d="m490.04 84.6a21.36 21.36 0 0 0-4.82-13.58 104.59 104.59 0 0 0-31.7-26.8 360.71 360.71 0 0 0-56.54-24.47c-10.09-3.45-20.3-6.43-30.56-7.27-0.63-2.89-0.89-5.69-1.87-8.21-1.15-2.93-4-3.92-6.95-4.2a11.55 11.55 0 0 0-7.28 1.31c-3.2 2-3.37 5.48-4.08 8.73a41.1 41.1 0 0 0-13.76 2.69c-0.45 0.16-1.23-0.26-1.73-0.61-2.65-1.85-5.16-3.94-7.93-5.61a14.84 14.84 0 0 0-9.3-2.36c-7.16 0.77-12.25 5.13-13.67 12.36a135.94 135.94 0 0 0-1.52 14.44 5.35 5.35 0 0 1-1.38 3.53c-8.23 8.59-16.25 17.39-24.67 25.78a112.61 112.61 0 0 1-17 14.06c-1.87 1.24-3.61 2.65-5.39 4a8.12 8.12 0 0 1-0.67 0.48v0.19c-5.76 4.06-12.11 8.34-18.72 12.66s-31.45 29.55-57.67 44c-1.1 0.55-13.8 6.8-27.3 8.34l-19.83 3.96c-24.51 7.45-75.23 28.42-104.81 79.89a85.34 85.34 0 0 0-6.18 13.34v0.06c-1.19 3.3-2.21 6.65-3.25 10v0.06c-0.9 2.9-1.83 5.81-2.6 8.75-6.91 26.08-7.38 46.19-7.38 46.19-0.7 5.58-1.08 11.2-1.26 16.86a238.82 238.82 0 0 0 2.16 44.33c0.31 1.81 0.6 3.61 0.95 5.45a142.4 142.4 0 0 0 8.26 28.12c4.73 11.46 11.16 21.74 23 27.46 5.08 2.49 10.45 3.15 16.05 3.15q49 0 98 0v0.21q49.72 0 99.46 0c6.16 0 6.61-0.54 6.11-6.59 0 0 0.55-23.32-21.39-23.32-4.09 0-7.35 0-9.94-0.15a3 3 0 0 1-2.58-4.29c5.75-11.82 5.82-24 4.06-34a6.3 6.3 0 0 1 4.41-7l1-0.36a6.36 6.36 0 0 1 7.26 2.21l12.15 16.26 0.08 0.15c5.92 16.84 13.06 33.17 23.07 48.07a69.09 69.09 0 0 0 5.3 6.66c1.12 1.29 2.57 2.27 4.43 1.7s2.23-2.28 2.55-4c1.11-5.87-0.18-11.69-0.5-17.5-1.35-24.77 4-47.85 16.74-69.17 2.23-3.74 4.53-7.43 6.86-11.1 0.51-0.8 1.17-1.84 2.38-1.28a1.15 1.15 0 0 1 0.66 0.89 14.13 14.13 0 0 1-0.14 4.85c-4.6 30.05-0.93 59.4 7.14 88.35a34.33 34.33 0 0 0 3.08 6.84c1 1.83 2.4 3.33 4.8 2.87a5 5 0 0 0 3.95-4.1 21 21 0 0 0 0.73-5.94c-1.62-30.84 7.13-58.75 23-84.92 5.8-9.56 11.31-19.27 16.44-29.16a196.14 196.14 0 0 0 21.16-74.63v-0.23a98.6 98.6 0 0 0 0.63-11.1 26.19 26.19 0 0 1 1.8-8.77c2.76-7.08 5.28-14.26 7.73-21.46 3.12-9.17 6.11-18.37 9.09-27.58a6.11 6.11 0 0 1 4.41-4.35 46.89 46.89 0 0 1 7-1.57c9.12-1 18.26-1.85 27.4-2.77 6.12-0.61 11.21-2.94 14.25-8.65 1.48-2.77 1.52-2.86 4.5-2.38a10.27 10.27 0 0 0 10.1-4.34 18.78 18.78 0 0 0 1.89-3.07c2.26-5.34 4.78-10.6 6.56-16.1 3.77-11.84 3.87-24.04 3.77-36.26zm-98.1-28.23c-0.76 1.69-2.23 2-3.78 2.15-2.21 0.19-4.43 0.24-5.58 0.3-7.12-0.31-13.13-1-18.87-3a43.36 43.36 0 0 1-7.75-3.8c-2-1.2-2.53-3.16-1.86-5.52a8.39 8.39 0 0 1 8-6.54c6.9-0.51 13.28 1.45 19.44 4.28a25.49 25.49 0 0 1 9.48 7.4c1.11 1.45 1.78 2.88 0.94 4.73h-0.02zm77.9 35.39a5.07 5.07 0 0 1-2.85-9.29 5.1 5.1 0 1 1 2.85 9.29z" fill="#fff"/>
</g>
</svg>
